<svg width="38" height="38" viewBox="0 0 38 38" fill="none" xmlns="http://www.w3.org/2000/svg">
<path d="M4.75 0C3.49022 0 2.28204 0.500445 1.39124 1.39124C0.500445 2.28204 0 3.49022 0 4.75L0 33.25C0 34.5098 0.500445 35.718 1.39124 36.6088C2.28204 37.4996 3.49022 38 4.75 38H33.25C34.5098 38 35.718 37.4996 36.6088 36.6088C37.4996 35.718 38 34.5098 38 33.25V4.75C38 3.49022 37.4996 2.28204 36.6088 1.39124C35.718 0.500445 34.5098 0 33.25 0L4.75 0ZM20.1875 10.6875V24.4459L25.2843 19.3468C25.3947 19.2363 25.5257 19.1488 25.67 19.089C25.8142 19.0293 25.9689 18.9985 26.125 18.9985C26.2811 18.9985 26.4358 19.0293 26.58 19.089C26.7243 19.1488 26.8553 19.2363 26.9657 19.3468C27.0762 19.4572 27.1637 19.5882 27.2235 19.7325C27.2832 19.8767 27.314 20.0314 27.314 20.1875C27.314 20.3436 27.2832 20.4983 27.2235 20.6425C27.1637 20.7868 27.0762 20.9178 26.9657 21.0282L19.8407 28.1532C19.7304 28.2638 19.5994 28.3516 19.4551 28.4114C19.3109 28.4713 19.1562 28.5021 19 28.5021C18.8438 28.5021 18.6891 28.4713 18.5449 28.4114C18.4006 28.3516 18.2696 28.2638 18.1593 28.1532L11.0343 21.0282C10.9238 20.9178 10.8363 20.7868 10.7765 20.6425C10.7168 20.4983 10.686 20.3436 10.686 20.1875C10.686 20.0314 10.7168 19.8767 10.7765 19.7325C10.8363 19.5882 10.9238 19.4572 11.0343 19.3468C11.2572 19.1238 11.5597 18.9985 11.875 18.9985C12.0311 18.9985 12.1858 19.0293 12.33 19.089C12.4743 19.1488 12.6053 19.2363 12.7157 19.3468L17.8125 24.4459V10.6875C17.8125 10.3726 17.9376 10.0705 18.1603 9.84781C18.383 9.62511 18.6851 9.5 19 9.5C19.3149 9.5 19.617 9.62511 19.8397 9.84781C20.0624 10.0705 20.1875 10.3726 20.1875 10.6875Z" fill="#917FEA"/>
</svg>
