<svg width="25" height="25" viewBox="0 0 25 25" fill="none" xmlns="http://www.w3.org/2000/svg">
<path d="M20.8333 0H4.16667C3.0616 0 2.00179 0.438987 1.22039 1.22039C0.438987 2.00179 0 3.0616 0 4.16667V20.8333C0 21.9384 0.438987 22.9982 1.22039 23.7796C2.00179 24.561 3.0616 25 4.16667 25H20.8333C21.9384 25 22.9982 24.561 23.7796 23.7796C24.561 22.9982 25 21.9384 25 20.8333V4.16667C25 3.0616 24.561 2.00179 23.7796 1.22039C22.9982 0.438987 21.9384 0 20.8333 0ZM22.2222 20.8333C22.2222 21.2017 22.0759 21.555 21.8154 21.8154C21.555 22.0759 21.2017 22.2222 20.8333 22.2222H4.16667C3.79831 22.2222 3.44504 22.0759 3.18457 21.8154C2.92411 21.555 2.77778 21.2017 2.77778 20.8333V4.16667C2.77778 3.79831 2.92411 3.44504 3.18457 3.18457C3.44504 2.92411 3.79831 2.77778 4.16667 2.77778H20.8333C21.2017 2.77778 21.555 2.92411 21.8154 3.18457C22.0759 3.44504 22.2222 3.79831 22.2222 4.16667V20.8333Z" fill="hsl(250,72%,71%)"/>
<path d="M17.4587 7.54125C17.2886 7.36975 17.0863 7.23362 16.8633 7.14072C16.6403 7.04783 16.4011 7 16.1596 7C15.918 7 15.6789 7.04783 15.4559 7.14072C15.2329 7.23362 15.0305 7.36975 14.8604 7.54125L12.5 9.91999L10.1396 7.54125C9.795 7.19669 9.32768 7.00312 8.84041 7.00312C8.35313 7.00312 7.88581 7.19669 7.54125 7.54125C7.19669 7.88581 7.00312 8.35313 7.00312 8.84041C7.00312 9.32768 7.19669 9.795 7.54125 10.1396L9.91999 12.5L7.54125 14.8604C7.36975 15.0305 7.23362 15.2329 7.14072 15.4559C7.04783 15.6789 7 15.918 7 16.1596C7 16.4011 7.04783 16.6403 7.14072 16.8633C7.23362 17.0863 7.36975 17.2886 7.54125 17.4587C7.71135 17.6303 7.91373 17.7664 8.13671 17.8593C8.35969 17.9522 8.59885 18 8.84041 18C9.08196 18 9.32113 17.9522 9.5441 17.8593C9.76708 17.7664 9.96946 17.6303 10.1396 17.4587L12.5 15.08L14.8604 17.4587C15.0305 17.6303 15.2329 17.7664 15.4559 17.8593C15.6789 17.9522 15.918 18 16.1596 18C16.4011 18 16.6403 17.9522 16.8633 17.8593C17.0863 17.7664 17.2886 17.6303 17.4587 17.4587C17.6303 17.2886 17.7664 17.0863 17.8593 16.8633C17.9522 16.6403 18 16.4011 18 16.1596C18 15.918 17.9522 15.6789 17.8593 15.4559C17.7664 15.2329 17.6303 15.0305 17.4587 14.8604L15.08 12.5L17.4587 10.1396C17.6303 9.96946 17.7664 9.76708 17.8593 9.5441C17.9522 9.32113 18 9.08196 18 8.84041C18 8.59885 17.9522 8.35969 17.8593 8.13671C17.7664 7.91373 17.6303 7.71135 17.4587 7.54125Z" fill="hsl(250,72%,71%)"/>
</svg>
