<svg width="34" height="34" viewBox="0 0 34 34" fill="none" xmlns="http://www.w3.org/2000/svg">
<g clip-path="url(#clip0)">
<path d="M6.08038 0C2.71212 0 0 2.71212 0 6.08038V27.2197C0 30.5879 2.71212 33.3 6.08038 33.3H17.5377V20.2818H14.0953V15.5948H17.5377V11.5905C17.5377 8.44448 19.5716 5.55591 24.257 5.55591C26.154 5.55591 27.5568 5.73802 27.5568 5.73802L27.4465 10.1149C27.4465 10.1149 26.0158 10.1014 24.4547 10.1014C22.7651 10.1014 22.4941 10.8799 22.4941 12.1722V15.5949H27.5807L27.3591 20.2818H22.4941V33.3001H27.2196C30.5879 33.3001 33.3 30.5879 33.3 27.2197V6.08041C33.3 2.71215 30.5879 3.33e-05 27.2196 3.33e-05H6.08035L6.08038 0Z" fill="black" fill-opacity="0.7"/>
</g>
<defs>
<clipPath id="clip0">
<rect width="33.3" height="33.3" rx="7" fill="white"/>
</clipPath>
</defs>
</svg>
