<svg width="34" height="34" viewBox="0 0 34 34" fill="none" xmlns="http://www.w3.org/2000/svg">
<g clip-path="url(#clip0)">
<path d="M31.7091 2.1616C30.491 0.943541 29.0254 0.335342 27.3104 0.335342H6.56022C4.8453 0.335342 3.37964 0.943541 2.16158 2.1616C0.943526 3.37966 0.335327 4.84532 0.335327 6.56024V27.3104C0.335327 29.0254 0.943526 30.491 2.16158 31.7091C3.37964 32.9271 4.8453 33.5353 6.56022 33.5353H11.4025C11.7183 33.5353 11.9559 33.5237 12.1154 33.5021C12.301 33.4649 12.4686 33.3659 12.5907 33.2213C12.7486 33.0551 12.8283 32.8141 12.8283 32.4984L12.8167 31.0278C12.81 30.0905 12.8067 29.3494 12.8067 28.801L12.3082 28.8874C11.9925 28.9456 11.5936 28.9705 11.1101 28.9639C10.6061 28.9546 10.1036 28.904 9.60786 28.8127C9.0801 28.7152 8.58328 28.493 8.15882 28.1646C7.71429 27.8283 7.38274 27.3646 7.2083 26.8352L6.99228 26.3367C6.8102 25.9434 6.58145 25.5735 6.31096 25.2349C6.00188 24.8311 5.68781 24.5586 5.37041 24.414L5.22086 24.306C5.11657 24.2313 5.02171 24.1443 4.93836 24.0468C4.85875 23.9563 4.79321 23.8543 4.74394 23.7443C4.70073 23.643 4.73729 23.5599 4.85195 23.4951C4.96827 23.4286 5.17599 23.397 5.48009 23.397L5.91214 23.4635C6.19962 23.52 6.5569 23.6928 6.98064 23.9803C7.40948 24.2727 7.76769 24.657 8.02921 25.1053C8.36156 25.6952 8.76037 26.1456 9.22899 26.4563C9.6976 26.7654 10.1695 26.9216 10.6448 26.9216C11.1201 26.9216 11.5305 26.885 11.8778 26.8136C12.2137 26.7441 12.54 26.6348 12.8499 26.4879C12.9795 25.5241 13.3318 24.7796 13.9085 24.2611C13.1613 24.1879 12.4208 24.0579 11.6934 23.8723C10.9834 23.6773 10.3007 23.3942 9.66104 23.0298C8.99176 22.6654 8.40061 22.1731 7.92119 21.5807C7.46089 21.0041 7.08201 20.248 6.78622 19.3125C6.49209 18.3752 6.3442 17.2934 6.3442 16.0687C6.3442 14.3256 6.91251 12.8416 8.05081 11.6153C7.51905 10.3058 7.5689 8.83517 8.20203 7.20832C8.62079 7.07704 9.24062 7.17508 10.0615 7.49912C10.8824 7.82316 11.484 8.10068 11.8662 8.33C12.2484 8.56264 12.5541 8.75707 12.7851 8.91493C14.1361 8.53897 15.5322 8.34998 16.9345 8.35326C18.3619 8.35326 19.7445 8.54104 21.0855 8.91493L21.9064 8.39647C22.5379 8.01734 23.2039 7.69907 23.8955 7.44595C24.6599 7.1568 25.2416 7.0787 25.647 7.20832C26.2951 8.83683 26.3516 10.3058 25.8182 11.6169C26.9565 12.8416 27.5265 14.3256 27.5265 16.0704C27.5265 17.2951 27.3786 18.3802 27.0828 19.3224C26.7886 20.2663 26.4064 21.0224 25.9378 21.5924C25.45 22.1771 24.8563 22.6648 24.188 23.0298C23.4901 23.4186 22.8121 23.6995 22.1557 23.8723C21.4283 24.0585 20.6878 24.1891 19.9406 24.2628C20.6884 24.9109 21.0639 25.9329 21.0639 27.3304V32.4984C21.0639 32.7427 21.0988 32.9404 21.1719 33.0917C21.2056 33.1645 21.2535 33.2299 21.3129 33.2838C21.3722 33.3378 21.4419 33.3792 21.5176 33.4057C21.6771 33.4622 21.8167 33.4988 21.9397 33.5121C22.0626 33.5287 22.2388 33.5337 22.4681 33.5337H27.3104C29.0254 33.5337 30.491 32.9255 31.7091 31.7074C32.9255 30.491 33.5353 29.0237 33.5353 27.3088V6.56024C33.5353 4.84532 32.9255 3.37966 31.7074 2.1616H31.7091Z" fill="black" fill-opacity="0.7"/>
</g>
<defs>
<clipPath id="clip0">
<rect width="33.5" height="33.5" rx="7" fill="white"/>
</clipPath>
</defs>
</svg>
