<svg width="34" height="34" viewBox="0 0 34 34" fill="none" xmlns="http://www.w3.org/2000/svg">
<g clip-path="url(#clip0)">
<path d="M16.6371 22.1551C19.7039 22.1551 22.1901 19.673 22.1901 16.6112C22.1901 13.5494 19.7039 11.0674 16.6371 11.0674C13.5702 11.0674 11.084 13.5494 11.084 16.6112C11.084 19.673 13.5702 22.1551 16.6371 22.1551Z" fill="black" fill-opacity="0.7"/>
<path d="M33.1927 9.82865C33.1741 8.43046 32.9119 7.04616 32.4179 5.73769C31.9896 4.634 31.3353 3.63165 30.497 2.79469C29.6586 1.95772 28.6546 1.30455 27.5491 0.876899C26.2553 0.392033 24.8884 0.129857 23.5068 0.101536C21.7278 0.0221534 21.1638 0 16.6482 0C12.1325 0 11.5537 1.23791e-07 9.7877 0.101536C8.40666 0.130065 7.04047 0.392238 5.74725 0.876899C4.64154 1.30425 3.63737 1.95732 2.79898 2.79432C1.96058 3.63132 1.30642 4.63383 0.878359 5.73769C0.391713 7.02836 0.12967 8.39259 0.103554 9.77142C0.0240393 11.5492 0 12.1123 0 16.6205C0 21.1287 -1.37775e-08 21.7046 0.103554 23.4695C0.131292 24.8504 0.392026 26.2128 0.878359 27.5069C1.30714 28.6105 1.96179 29.6126 2.80046 30.4492C3.63914 31.2859 4.6434 31.9387 5.74909 32.3659C7.03877 32.8702 8.4052 33.1512 9.78955 33.1966C11.5703 33.276 12.1343 33.3 16.65 33.3C21.1657 33.3 21.7445 33.3 23.5105 33.1966C24.8921 33.1695 26.259 32.9079 27.5528 32.4231C28.658 31.995 29.6618 31.3416 30.5001 30.5047C31.3383 29.6678 31.9928 28.6657 32.4216 27.5623C32.908 26.27 33.1687 24.9076 33.1964 23.5249C33.276 21.7489 33.3 21.1859 33.3 16.6758C33.2963 12.1677 33.2963 11.5954 33.1927 9.82865ZM16.6371 25.1458C11.9143 25.1458 8.0883 21.3262 8.0883 16.6112C8.0883 11.8963 11.9143 8.0767 16.6371 8.0767C18.9043 8.0767 21.0787 8.97587 22.6819 10.5764C24.2851 12.1769 25.1858 14.3477 25.1858 16.6112C25.1858 18.8747 24.2851 21.0455 22.6819 22.6461C21.0787 24.2466 18.9043 25.1458 16.6371 25.1458ZM25.5261 9.75112C25.2642 9.75136 25.0049 9.70005 24.7629 9.60012C24.521 9.5002 24.3011 9.35362 24.116 9.16877C23.9308 8.98393 23.784 8.76444 23.6839 8.52288C23.5838 8.28132 23.5324 8.02243 23.5326 7.76102C23.5326 7.49979 23.5842 7.24113 23.6843 6.99979C23.7844 6.75846 23.9312 6.53917 24.1162 6.35446C24.3013 6.16975 24.5209 6.02322 24.7626 5.92326C25.0044 5.82329 25.2635 5.77184 25.5251 5.77184C25.7868 5.77184 26.0459 5.82329 26.2876 5.92326C26.5294 6.02322 26.749 6.16975 26.934 6.35446C27.1191 6.53917 27.2658 6.75846 27.366 6.99979C27.4661 7.24113 27.5176 7.49979 27.5176 7.76102C27.5176 8.86129 26.6263 9.75112 25.5261 9.75112Z" fill="black" fill-opacity="0.7"/>
</g>
<defs>
<clipPath id="clip0">
<rect width="33.3" height="33.3" rx="10" fill="white"/>
</clipPath>
</defs>
</svg>
