<svg width="25" height="18" viewBox="0 0 25 18" fill="none" xmlns="http://www.w3.org/2000/svg">
<path d="M1.78571 0H10.7143C11.1879 0 11.6421 0.188138 11.977 0.523024C12.3119 0.85791 12.5 1.31211 12.5 1.78571C12.5 2.25932 12.3119 2.71352 11.977 3.0484C11.6421 3.38329 11.1879 3.57143 10.7143 3.57143H1.78571C1.31211 3.57143 0.85791 3.38329 0.523024 3.0484C0.188138 2.71352 0 2.25932 0 1.78571C0 1.31211 0.188138 0.85791 0.523024 0.523024C0.85791 0.188138 1.31211 0 1.78571 0ZM14.2857 14.2857H23.2143C23.6879 14.2857 24.1421 14.4739 24.477 14.8087C24.8119 15.1436 25 15.5978 25 16.0714C25 16.545 24.8119 16.9992 24.477 17.3341C24.1421 17.669 23.6879 17.8571 23.2143 17.8571H14.2857C13.8121 17.8571 13.3579 17.669 13.023 17.3341C12.6881 16.9992 12.5 16.545 12.5 16.0714C12.5 15.5978 12.6881 15.1436 13.023 14.8087C13.3579 14.4739 13.8121 14.2857 14.2857 14.2857ZM1.78571 7.14286H23.2143C23.6879 7.14286 24.1421 7.33099 24.477 7.66588C24.8119 8.00077 25 8.45497 25 8.92857C25 9.40217 24.8119 9.85638 24.477 10.1913C24.1421 10.5261 23.6879 10.7143 23.2143 10.7143H1.78571C1.31211 10.7143 0.85791 10.5261 0.523024 10.1913C0.188138 9.85638 0 9.40217 0 8.92857C0 8.45497 0.188138 8.00077 0.523024 7.66588C0.85791 7.33099 1.31211 7.14286 1.78571 7.14286Z" fill="#917FEA"/>
</svg>
