<svg width="35" height="35" viewBox="0 0 35 35" fill="none" xmlns="http://www.w3.org/2000/svg">
<path d="M28.5185 17.5C28.5185 19.6793 27.8723 21.8096 26.6616 23.6216C25.4508 25.4335 23.73 26.8458 21.7166 27.6798C19.7032 28.5137 17.4878 28.732 15.3504 28.3068C13.213 27.8816 11.2497 26.8322 9.70873 25.2913C8.16776 23.7503 7.11835 21.787 6.6932 19.6496C6.26805 17.5122 6.48625 15.2968 7.32022 13.2834C8.15418 11.27 9.56645 9.54917 11.3784 8.33844C13.1904 7.12771 15.3207 6.48148 17.5 6.48148C20.4213 6.48478 23.222 7.64672 25.2876 9.71238C27.3533 11.778 28.5152 14.5787 28.5185 17.5ZM17.5 3.88889C17.8438 3.88889 18.1735 3.75231 18.4166 3.50921C18.6597 3.26611 18.7963 2.93639 18.7963 2.59259V1.2963C18.7963 0.952497 18.6597 0.622779 18.4166 0.379676C18.1735 0.136574 17.8438 0 17.5 0C17.1562 0 16.8265 0.136574 16.5834 0.379676C16.3403 0.622779 16.2037 0.952497 16.2037 1.2963V2.59259C16.2037 2.93639 16.3403 3.26611 16.5834 3.50921C16.8265 3.75231 17.1562 3.88889 17.5 3.88889ZM6.04236 7.87549C6.16208 7.99874 6.3051 8.09697 6.46312 8.16445C6.62114 8.23194 6.791 8.26733 6.96282 8.26858C7.13465 8.26983 7.305 8.23691 7.46398 8.17172C7.62297 8.10654 7.76741 8.0104 7.8889 7.8889C8.0104 7.76739 8.10652 7.62295 8.17169 7.46396C8.23686 7.30497 8.26976 7.13461 8.2685 6.96279C8.26724 6.79097 8.23183 6.62111 8.16433 6.4631C8.09683 6.30508 7.99859 6.16207 7.87532 6.04236L6.95868 5.12572C6.83881 5.00313 6.69581 4.90555 6.53797 4.83861C6.38012 4.77167 6.21056 4.73671 6.03911 4.73575C5.86766 4.73479 5.69773 4.76785 5.53914 4.83302C5.38056 4.89819 5.23648 4.99417 5.11524 5.1154C4.994 5.23664 4.89802 5.38072 4.83285 5.5393C4.76769 5.69789 4.73462 5.86783 4.73558 6.03928C4.73654 6.21073 4.7715 6.38028 4.83844 6.53813C4.90538 6.69597 5.00297 6.83897 5.12556 6.95884L6.04236 7.87549ZM2.59259 16.2037H1.2963C0.952497 16.2037 0.622779 16.3403 0.379676 16.5834C0.136574 16.8265 0 17.1562 0 17.5C0 17.8438 0.136574 18.1735 0.379676 18.4166C0.622779 18.6597 0.952497 18.7963 1.2963 18.7963H2.59259C2.93639 18.7963 3.26611 18.6597 3.50921 18.4166C3.75231 18.1735 3.88889 17.8438 3.88889 17.5C3.88889 17.1562 3.75231 16.8265 3.50921 16.5834C3.26611 16.3403 2.93639 16.2037 2.59259 16.2037ZM6.04236 27.1245L5.12572 28.0412C5.00313 28.161 4.90555 28.304 4.83861 28.4619C4.77167 28.6197 4.73671 28.7893 4.73575 28.9607C4.73479 29.1322 4.76785 29.3021 4.83302 29.4607C4.89819 29.6193 4.99417 29.7634 5.1154 29.8846C5.23664 30.0058 5.38072 30.1018 5.5393 30.167C5.69789 30.2322 5.86783 30.2652 6.03928 30.2643C6.21073 30.2633 6.38028 30.2283 6.53813 30.1614C6.69597 30.0945 6.83897 29.9969 6.95884 29.8743L7.87549 28.9576C8.1141 28.7136 8.24685 28.3854 8.24494 28.0441C8.24303 27.7028 8.10661 27.376 7.86528 27.1347C7.62396 26.8934 7.2972 26.757 6.95592 26.7551C6.61464 26.7531 6.28637 26.8859 6.04236 27.1245V27.1245ZM17.5 31.1111C17.1562 31.1111 16.8265 31.2477 16.5834 31.4908C16.3403 31.7339 16.2037 32.0636 16.2037 32.4074V33.7037C16.2037 34.0475 16.3403 34.3772 16.5834 34.6203C16.8265 34.8634 17.1562 35 17.5 35C17.8438 35 18.1735 34.8634 18.4166 34.6203C18.6597 34.3772 18.7963 34.0475 18.7963 33.7037V32.4074C18.7963 32.0636 18.6597 31.7339 18.4166 31.4908C18.1735 31.2477 17.8438 31.1111 17.5 31.1111ZM28.9576 27.1245C28.7136 26.8859 28.3854 26.7531 28.0441 26.7551C27.7028 26.757 27.376 26.8934 27.1347 27.1347C26.8934 27.376 26.757 27.7028 26.7551 28.0441C26.7531 28.3854 26.8859 28.7136 27.1245 28.9576L28.0412 29.8743C28.2852 30.1129 28.6134 30.2456 28.9547 30.2437C29.296 30.2418 29.6228 30.1054 29.8641 29.8641C30.1054 29.6228 30.2418 29.296 30.2437 28.9547C30.2456 28.6134 30.1129 28.2852 29.8743 28.0412L28.9576 27.1245ZM33.7037 16.2037H32.4074C32.0636 16.2037 31.7339 16.3403 31.4908 16.5834C31.2477 16.8265 31.1111 17.1562 31.1111 17.5C31.1111 17.8438 31.2477 18.1735 31.4908 18.4166C31.7339 18.6597 32.0636 18.7963 32.4074 18.7963H33.7037C34.0475 18.7963 34.3772 18.6597 34.6203 18.4166C34.8634 18.1735 35 17.8438 35 17.5C35 17.1562 34.8634 16.8265 34.6203 16.5834C34.3772 16.3403 34.0475 16.2037 33.7037 16.2037ZM28.0412 8.25514C28.2114 8.25535 28.38 8.22192 28.5374 8.15676C28.6947 8.09161 28.8375 7.99602 28.9578 7.87549L29.8743 6.95884C29.9969 6.83897 30.0945 6.69597 30.1614 6.53813C30.2283 6.38028 30.2633 6.21073 30.2643 6.03928C30.2652 5.86783 30.2322 5.69789 30.167 5.5393C30.1018 5.38072 30.0058 5.23664 29.8846 5.1154C29.7634 4.99417 29.6193 4.89819 29.4607 4.83302C29.3021 4.76785 29.1322 4.73479 28.9607 4.73575C28.7893 4.73671 28.6197 4.77167 28.4619 4.83861C28.304 4.90555 28.161 5.00313 28.0412 5.12572L27.1245 6.04236C26.9433 6.22366 26.8198 6.45463 26.7699 6.70606C26.7199 6.9575 26.7456 7.21811 26.8437 7.45495C26.9418 7.69179 27.1079 7.89422 27.3211 8.03665C27.5342 8.17908 27.7848 8.25512 28.0412 8.25514V8.25514Z" fill="black"/>
</svg>
