<svg width="34" height="34" viewBox="0 0 34 34" fill="none" xmlns="http://www.w3.org/2000/svg">
<g clip-path="url(#clip0)">
<path fill-rule="evenodd" clip-rule="evenodd" d="M39 -6.67572e-06C39 9.19495 48.195 36.5 39 36.5C29.805 36.5 -19.5 43.695 -19.5 34.5C-19.5 25.305 -5.19496 -8 4 -8C13.195 -8 39 -9.19497 39 -6.67572e-06ZM17.2466 12.2918C15.6274 12.9648 12.3904 14.3592 7.5369 16.4738C6.7488 16.7873 6.33533 17.094 6.29786 17.3937C6.23404 17.9015 6.86951 18.1013 7.73254 18.3719C7.85047 18.4093 7.97258 18.4468 8.09745 18.4884C8.94799 18.7645 10.0913 19.0878 10.6851 19.1003C11.2249 19.1114 11.8271 18.8894 12.4917 18.4343C17.026 15.3721 19.3667 13.825 19.5138 13.7917C19.6179 13.7681 19.7622 13.7376 19.8593 13.825C19.9564 13.9111 19.9467 14.0748 19.937 14.1192C19.8732 14.387 17.384 16.7027 16.0936 17.9015C15.6912 18.2747 15.4068 18.5398 15.3485 18.6008C15.2181 18.7354 15.0849 18.8644 14.9572 18.9879C14.1664 19.7483 13.5753 20.3199 14.9905 21.2523C15.6704 21.7005 16.2143 22.0709 16.7568 22.44C17.3493 22.8438 17.9404 23.2462 18.7063 23.7484C18.9005 23.8761 19.0864 24.0079 19.2682 24.1369C19.9578 24.6295 20.578 25.0707 21.3439 25.0014C21.7879 24.9597 22.2486 24.5421 22.4817 23.2947C23.0325 20.3449 24.1175 13.9569 24.3687 11.3234C24.3839 11.1047 24.3746 10.8851 24.3409 10.6685C24.3207 10.4936 24.2355 10.3326 24.1023 10.2175C23.9039 10.0552 23.5958 10.0205 23.4571 10.0233C22.8313 10.0344 21.8712 10.3688 17.2466 12.2918Z" fill="black" fill-opacity="0.7"/>
</g>
<defs>
<clipPath id="clip0">
<rect width="33.3" height="33.3" rx="7" fill="white"/>
</clipPath>
</defs>
</svg>
